<?xml version="1.0" encoding="iso-8859-1"?>
<!-- Uploaded to: SVG Repo, www.svgrepo.com, Generator: SVG Repo Mixer Tools -->
<svg fill="#000000" height="800px" width="800px" version="1.1" id="Layer_1" xmlns="http://www.w3.org/2000/svg" xmlns:xlink="http://www.w3.org/1999/xlink" 
	 viewBox="0 0 512.004 512.004" xml:space="preserve">
<g>
	<g>
		<path d="M155.714,430.313L81.69,356.289c-10.219-10.221-26.791-10.219-37.012,0s-10.221,26.791,0,37.014l74.024,74.024
			c10.219,10.219,26.791,10.219,37.012-0.002C165.933,457.106,165.933,440.534,155.714,430.313z"/>
	</g>
</g>
<g>
	<g>
		<path d="M170.161,29.191c-9.406-3.135-19.772-0.688-26.782,6.323L7.665,171.229c-10.219,10.219-10.219,26.791,0.002,37.012
			l18.503,18.502L210.331,42.58L170.161,29.191z"/>
	</g>
</g>
<g>
	<g>
		<path d="M482.81,341.846l-13.391-40.17L285.261,485.834l18.505,18.503c4.908,4.91,11.564,7.667,18.505,7.667
			c6.943,0,13.597-2.757,18.505-7.665l135.711-135.711C483.498,361.619,485.944,351.252,482.81,341.846z"/>
	</g>
</g>
<g>
	<g>
		<path d="M508.638,26.15c-1.466-11.922-10.86-21.314-22.783-22.783c-1.425-0.174-35.37-4.28-74.953-3.179
			C352.66,1.808,313.582,13.362,291.43,35.51l-25.575,25.579h-0.003l-41.383,41.381L100.193,226.744l-37.012,37.012l18.507,18.507
			c0.01,0.01,0.019,0.019,0.024,0.024l55.496,55.496l191.232-191.23v-0.002c10.219-10.219,26.793-10.217,37.012,0.002
			c0.639,0.639,1.237,1.302,1.795,1.987c0.213,0.262,0.393,0.541,0.595,0.808c0.325,0.433,0.667,0.86,0.963,1.309
			c0.328,0.497,0.614,1.016,0.904,1.528c0.133,0.234,0.288,0.461,0.412,0.698c0.279,0.529,0.511,1.073,0.752,1.617
			c0.105,0.237,0.23,0.466,0.328,0.705c0.263,0.654,0.485,1.321,0.696,1.991c0.042,0.136,0.101,0.267,0.141,0.403
			c1.647,5.559,1.41,11.556-0.71,16.989c-0.061,0.161-0.138,0.318-0.204,0.478c-0.157,0.38-0.311,0.759-0.487,1.131
			c-0.113,0.244-0.246,0.48-0.368,0.721c-0.145,0.283-0.279,0.569-0.436,0.848c-0.178,0.325-0.38,0.64-0.576,0.958
			c-0.115,0.187-0.22,0.382-0.34,0.567c-0.197,0.302-0.412,0.595-0.623,0.892c-0.136,0.194-0.265,0.393-0.408,0.583
			c-0.195,0.262-0.412,0.513-0.619,0.768c-0.174,0.216-0.34,0.438-0.523,0.649c-0.195,0.225-0.407,0.438-0.612,0.658
			c-0.216,0.232-0.424,0.471-0.651,0.698l-0.024,0.024l-154.22,154.22l-37.012,37.012l55.519,55.519l18.505,18.505l37.014-37.012
			l26.91-26.91l97.362-97.366l0.002,0.002l41.381-41.383v-0.002l25.575-25.575c22.148-22.15,33.704-61.23,35.323-119.472
			C512.917,61.518,508.813,27.575,508.638,26.15z"/>
	</g>
</g>
</svg>